HIERARCHY
ROOT pelvis
{
  OFFSET 0 100 0
  CHANNELS 6 Xposition Yposition Zposition Zrotation Xrotation Yrotation
  JOINT pelvis_right_femur
  {
    OFFSET -10.78128 -3.44521 -0.5502486
    CHANNELS 3 Zrotation Xrotation Yrotation
    JOINT right_femur_tibia
    {
      OFFSET -0.8047443 -44.0398 -0.1307829
      CHANNELS 3 Zrotation Xrotation Yrotation
      JOINT right_tibia_foot
      {
        OFFSET 3.006224 -47.83518 -5
        CHANNELS 3 Zrotation Xrotation Yrotation
        End Site
        {
          OFFSET 0 -5 15
        }
      }
    }
  }
  JOINT pelvis_left_femur
  {
    OFFSET 10.78128 -3.44521 -0.5502486
    CHANNELS 3 Zrotation Xrotation Yrotation
    JOINT left_femur_tibia
    {
      OFFSET 0.8047443 -44.0398 -0.1307829
      CHANNELS 3 Zrotation Xrotation Yrotation
      JOINT left_tibia_foot
      {
        OFFSET -4.370144 -48.10324 -4.275266
        CHANNELS 3 Zrotation Xrotation Yrotation
        End Site
        {
          OFFSET 0 -5 15
        }
      }
    }
  }
  JOINT pelvis_spine1
  {
    OFFSET 0 6.468898 -3.129235
    CHANNELS 3 Zrotation Xrotation Yrotation
    JOINT spine1
    {
      OFFSET 0 23.15396 4.99043
      CHANNELS 3 Zrotation Xrotation Yrotation
      JOINT spine2
      {
        OFFSET 0 20.79997 -5.064912
        CHANNELS 3 Zrotation Xrotation Yrotation
        JOINT neck
        {
          OFFSET 0 14.38658 9.616178
          CHANNELS 3 Zrotation Xrotation Yrotation
          End Site
          {
            OFFSET 0 20 0
          }
        }
      }
      JOINT right_manubrium
      {
        OFFSET -5.722621 16.35077 3.967754
        CHANNELS 3 Zrotation Xrotation Yrotation
        JOINT right_clavicle
        {
          OFFSET -13.16364 1.694482 -4.693211
          CHANNELS 3 Zrotation Xrotation Yrotation
          JOINT right_humerus
          {
            OFFSET -28.5034 -0.3100689 -2.792744
            CHANNELS 3 Zrotation Xrotation Yrotation
            JOINT right_radius
            {
              OFFSET -25.15693 0.02248979 -1.271978
              CHANNELS 3 Zrotation Xrotation Yrotation
              End Site
              {
                OFFSET -15 0 0
              }
            }
          }
        }
      }
      JOINT left_manubrium
      {
        OFFSET 5.722621 16.35077 3.967754
        CHANNELS 3 Zrotation Xrotation Yrotation
        JOINT left_clavicle
        {
          OFFSET 13.16364 1.694482 -4.693211
          CHANNELS 3 Zrotation Xrotation Yrotation
          JOINT left_humerus
          {
            OFFSET 29.39168 -1.063119 -2.237045
            CHANNELS 3 Zrotation Xrotation Yrotation
            JOINT left_radius
            {
              OFFSET 24.59957 -0.9528479 0.9047498
              CHANNELS 3 Zrotation Xrotation Yrotation
              End Site
              {
                OFFSET 15 -0 -0
              }
            }
          }
        }
      }
    }
  }
}
MOTION
Frames: 11
Frame Time: 0.0416666666667
0 103.5113 0 2.908328 0.4130674 0.2223682 3.113368 -15.58656 11.26966 -0 38.40974 -0 -3.499498 -17.18197 -2.698882 -9.409935 8.768011 -22.76759 -0 4.689076 -0 22.17161 -8.986934 29.96183 -1.756854 -1.910628 5.410097 2.362935 10.95406 -7.388525 2.107564 20.97154 5.461055 2.860356 -26.09834 9.168746 4.820143 -19.67375 11.15199 88.25538 35.61917 -20.27889 -0 0 13.78431 -8.369725 8.840775 3.573774 5.635344 -20.58892 -2.435257 -92.27358 22.54858 21.08799 0 0 -16.30178 13.28201 14.29404 -0.9772159
0.4382367 103.4332 1.575838 2.196979 1.207722 0.3993838 4.283098 -17.84939 11.64453 -0 38.02265 -0 -4.037684 -16.0374 -2.353658 -9.074042 8.494308 -22.75026 -0 4.861858 -0 22.10572 -9.663671 30.20286 -1.714808 -1.854922 5.253601 2.491936 10.83206 -7.497646 2.113238 20.87579 5.569293 2.833574 -26.4279 9.349673 4.734239 -19.58629 11.18935 88.44116 35.63253 -20.42255 -0 0 13.55666 -8.363006 8.921356 3.661704 5.633791 -20.47771 -2.206293 -92.10112 22.46122 20.75945 0 0 -16.45353 13.37638 14.2038 -1.208959
0.4453689 101.6843 7.615605 0.7291448 -3.129053 0.6448967 2.004665 -28.14762 -5.219129 -0 6.013821 -0 -6.893267 5.067285 -1.251223 -5.958712 16.29755 -7.754653 -0 17.18369 -0 2.305369 -19.64607 13.82222 -1.778529 -1.335364 5.991308 1.590547 11.76584 -6.789711 1.694493 21.43535 5.39234 3.310961 -24.04131 7.841932 4.585013 -19.82708 11.31434 87.57392 34.60535 -18.62065 -0 0 14.06721 -10.70454 8.639698 4.607295 5.341071 -21.26734 -3.607255 -91.6513 21.11797 21.41013 0 0 -15.43966 12.49714 13.06252 -0.3131214
0.4534153 100.9098 13.74385 0.01731234 -1.067066 0.8125842 3.777613 -31.5905 -3.295263 -0 6.837844 -0 -7.630513 5.916527 -0.5442967 -5.826667 17.08509 -8.368991 -0 18.96091 -0 3.850875 -18.76149 13.40759 -1.857825 -1.343932 5.994107 1.577117 11.6324 -6.711402 1.616092 21.51068 5.455453 3.408836 -23.8107 7.687297 4.853599 -19.63341 11.25463 87.02277 34.56822 -18.3685 -0 0 14.08094 -10.70921 8.645924 4.854518 5.356746 -21.27017 -3.676344 -91.80773 21.68626 21.54444 0 0 -15.54288 11.74015 13.07515 0.7899649
0.4333767 100.3859 20.2848 -0.4507299 -1.260422 0.9359642 5.156209 -30.50007 -3.494719 -0 7.187781 -0 -9.119031 8.22459 0.6269982 -5.511224 16.84708 -7.344578 -0 25.81976 -0 4.292459 -15.84078 12.26752 -1.972529 -1.506564 5.902417 1.692817 11.31329 -6.721248 1.595614 21.56343 5.515127 3.449991 -23.82691 7.694736 5.294524 -19.34111 11.12315 86.42234 34.70664 -18.44702 -0 0 14.05319 -10.16047 8.65453 4.887645 5.434079 -21.18696 -3.635984 -92.2172 22.90688 21.74102 0 0 -15.93582 10.72889 13.43004 2.344456
0.4811601 100.635 27.03212 -1.586653 0.01624126 1.055781 7.468123 -30.59707 -1.602905 -0 9.592908 -0 -10.88708 9.866611 1.743523 -4.721436 15.55019 -6.967782 -0 33.05415 -0 4.612769 -11.97125 10.15012 -2.073306 -1.576589 5.871893 1.699232 11.04862 -6.654729 1.49295 21.69109 5.612052 3.566182 -23.53056 7.513768 5.665841 -19.05078 11.01605 85.70052 34.65408 -18.25713 -0 0 14.07995 -10.04775 8.685145 5.15481 5.472479 -21.1971 -3.707824 -92.53255 24.04156 21.96705 0 0 -16.30095 9.378318 13.59545 4.246691
0.5547233 101.2358 33.89868 -2.237464 -0.2264022 0.9908999 8.66557 -27.56297 -0.6980951 -0 11.03829 -0 -12.01356 9.909998 1.970973 -3.880412 12.86796 -6.101099 -0 42.03421 -0 3.587729 -8.175279 8.351185 -2.143086 -1.601298 5.850747 1.657349 10.75845 -6.575557 1.34655 21.85894 5.755079 3.71607 -23.08645 7.261776 5.986151 -18.73604 10.92156 84.9495 34.54139 -17.99352 -0 0 14.11801 -10.17727 8.791312 5.545524 5.49918 -21.25515 -3.78426 -92.79715 25.29257 22.17289 0 0 -16.80741 7.678866 13.70048 6.53621
0.6760994 102.2843 40.62571 -2.772162 -0.2651617 0.7682407 9.351284 -24.4062 0.1052842 -0 11.95724 -0 -13.25795 8.724352 2.194597 -3.010943 8.946506 -5.470437 -0 50.19518 -0 3.02252 -4.649122 6.65844 -2.126405 -1.618952 5.885193 1.530871 10.47646 -6.495001 1.190069 22.02618 5.938548 3.901399 -22.53548 7.001857 6.211447 -18.47241 10.82315 84.33228 34.47536 -17.80072 -0 0 14.22496 -10.47712 9.00868 5.877088 5.596526 -21.44297 -3.826561 -93.05263 26.54118 22.41801 0 0 -17.48856 5.965982 13.84751 8.87439
0.7465891 103.416 47.11537 -2.458354 -2.076723 0.2397935 8.853666 -19.20684 -0.3405847 -0 11.68132 -0 -13.76664 6.479847 1.537636 -2.455369 4.640048 -4.649304 -0 57.18067 -0 2.611517 -2.931822 6.980117 -2.001525 -1.631849 5.905225 1.376171 10.14617 -6.462641 1.055731 22.14851 6.186653 4.102228 -22.06098 6.843655 6.353369 -18.22361 10.71179 83.96446 34.54096 -17.84881 -0 0 14.31002 -10.7736 9.349592 6.075812 5.781139 -21.69938 -3.761291 -93.3347 27.91055 22.65252 0 0 -18.44005 4.268497 14.0959 11.24611
0.6977248 104.5593 53.23973 -1.738064 -5.146776 -0.5320381 8.030866 -12.87175 -1.442616 -0 11.1614 -0 -14.31038 3.937239 0.48605 -1.94466 0.4439254 -3.984279 -0 61.29173 -0 3.040479 -2.719844 9.181926 -1.78755 -1.632079 5.86677 1.233906 9.789025 -6.499541 0.9729952 22.20633 6.474065 4.28955 -21.78247 6.839025 6.416461 -17.99495 10.59918 83.94043 34.74687 -18.21103 -0 0 14.32066 -10.9296 9.746979 6.084656 6.019234 -21.94757 -3.599052 -93.65262 29.35406 22.85208 0 0 -19.5699 2.706182 14.43862 13.46167
0.5287413 105.5119 58.90139 -0.9422526 -9.16266 -1.510942 7.415227 -4.976175 -2.267771 -0 10.7992 -0 -14.28183 1.172725 -1.12041 -1.235977 -3.521161 -3.943063 -0 60.7582 -0 3.522862 -3.516077 13.41 -1.552116 -1.614674 5.762192 1.126966 9.453071 -6.588999 0.9459752 22.22108 6.748147 4.436597 -21.70269 6.956981 6.418731 -17.80874 10.50934 84.20841 35.02493 -18.78464 -0 0 14.27312 -10.91486 10.09842 5.9382 6.236089 -22.10835 -3.405027 -93.99102 30.76072 23.02118 0 0 -20.67183 1.325283 14.81357 15.37916
